<?xml version="1.0" standalone="no"?>
<svg xmlns:xlink="http://www.w3.org/1999/xlink" id="wave" style="transform:rotate(0deg); transition: 0.3s" viewBox="0 0 1440 120" version="1.1" xmlns="http://www.w3.org/2000/svg"><defs><linearGradient id="sw-gradient-0" x1="0" x2="0" y1="1" y2="0"><stop stop-color="rgba(18, 79, 136, 1)" offset="0%"/><stop stop-color="rgba(18, 79, 153, 1)" offset="100%"/></linearGradient></defs><path style="transform:translate(0, 0px); opacity:1" fill="url(#sw-gradient-0)" d="M0,48L80,50C160,52,320,56,480,48C640,40,800,20,960,22C1120,24,1280,48,1440,62C1600,76,1760,80,1920,68C2080,56,2240,28,2400,26C2560,24,2720,48,2880,60C3040,72,3200,72,3360,68C3520,64,3680,56,3840,60C4000,64,4160,80,4320,88C4480,96,4640,96,4800,94C4960,92,5120,88,5280,78C5440,68,5600,52,5760,46C5920,40,6080,44,6240,50C6400,56,6560,64,6720,68C6880,72,7040,72,7200,64C7360,56,7520,40,7680,36C7840,32,8000,40,8160,48C8320,56,8480,64,8640,74C8800,84,8960,96,9120,98C9280,100,9440,92,9600,80C9760,68,9920,52,10080,54C10240,56,10400,76,10560,80C10720,84,10880,72,11040,60C11200,48,11360,36,11440,30L11520,24L11520,120L11440,120C11360,120,11200,120,11040,120C10880,120,10720,120,10560,120C10400,120,10240,120,10080,120C9920,120,9760,120,9600,120C9440,120,9280,120,9120,120C8960,120,8800,120,8640,120C8480,120,8320,120,8160,120C8000,120,7840,120,7680,120C7520,120,7360,120,7200,120C7040,120,6880,120,6720,120C6560,120,6400,120,6240,120C6080,120,5920,120,5760,120C5600,120,5440,120,5280,120C5120,120,4960,120,4800,120C4640,120,4480,120,4320,120C4160,120,4000,120,3840,120C3680,120,3520,120,3360,120C3200,120,3040,120,2880,120C2720,120,2560,120,2400,120C2240,120,2080,120,1920,120C1760,120,1600,120,1440,120C1280,120,1120,120,960,120C800,120,640,120,480,120C320,120,160,120,80,120L0,120Z"/></svg>